<svg id="Layer_1" data-name="Layer 1" xmlns="http://www.w3.org/2000/svg" viewBox="0 0 354.14 508.04">
    <defs>
    <style>
        .cls-1 {
            fill: #fdcc01;
        }

        .cls-1:hover {
            fill: #383838;
        }
    </style>
    </defs>
    <title>koo</title>
    <path class="cls-1"
        d="M106.67,109.21l7.62-8.47,18.62-22L161.7,62.65l5.07-8.47,5.08-14.39V27.94l8.47-9.32L185.4,6.77h10.16l18.62,9.31L226,36.4l1.7,23.71,27.93,15.24L271.75,87.2l14.39,18.62,16.93,39.79,6.78,25.4,4.23,30.48,4.23,28.78L332.7,243l7.62,22,7.62,21.16L350.48,309l-10.16,20.32-14.39,13.54-18.62,3.39-3.39,15.24-8.47,21.16-17.77,21.17L258.2,420.75,232,430.91l-29.63,7.62H154.08l-35.56-4.24L77.88,420.75,54.18,408.9,37.25,397,25.4,387.73,13.54,373.34,5.08,361.49l3.39-17.78,14.39-8.47V322.55l5.92-20.32,11.86-23.71,11-19.47,11-16.08,11-10.16,8.47-5.93V212.49l2.54-16.93,2.54-27.09,5.08-22.86,6.77-21.16Z" />
    <path class="cls-2"
        d="M353.73,292.31v-.51a121,121,0,0,0-15.68-48.36,82.18,82.18,0,0,0-8.19-11.59A12.4,12.4,0,0,0,321,227.5c-.09-1-.19-2.07-.29-3.1-.61-6.42-1.29-12.7-2-18.8-.19-1.52-.36-3-.54-4.53l-.41-3.26a2.65,2.65,0,0,0-.14-1c-.08-.73-.18-1.45-.28-2.18a8.33,8.33,0,0,0-.17-1.22c-.09-.66-.19-1.31-.27-2s-.12-.83-.19-1.25-.19-1.27-.29-1.91-.12-.81-.18-1.22c-.11-.66-.21-1.32-.33-2a5.88,5.88,0,0,0-.17-1.09c-.13-.79-.25-1.57-.38-2.33a4.82,4.82,0,0,0-.12-.68c-.17-1-.34-2-.53-3l-.15-.82c-.14-.71-.25-1.42-.39-2.11L314,174c-.12-.61-.24-1.22-.38-1.81s-.15-.76-.22-1.15l-.35-1.69c-.09-.38-.17-.75-.24-1.12s-.25-1.17-.39-1.69-.15-.7-.22-1.05l-.44-1.92a4.43,4.43,0,0,0-.18-.83c-.21-.89-.43-1.79-.65-2.67l-.1-.43c-.19-.74-.35-1.49-.54-2.21l-.26-.93c-.13-.56-.28-1.12-.42-1.7l-.27-1c-.15-.53-.29-1-.42-1.56s-.19-.68-.29-1-.29-1-.42-1.53-.21-.66-.29-1l-.48-1.6-.25-.88c-.2-.67-.42-1.35-.63-2a.58.58,0,0,0-.11-.41c-.26-.79-.5-1.57-.75-2.35l-.25-.78c-.19-.52-.36-1.05-.53-1.57l-.3-.92c-.17-.46-.32-.93-.49-1.4l-.33-.93c-.1-.33-.32-.9-.49-1.36l-.32-.91-.51-1.38c-.1-.27-.22-.55-.32-.84s-.39-1-.59-1.54a1.74,1.74,0,0,0-.24-.63c-.27-.71-.56-1.4-.83-2.1l-.25-.61-.61-1.49-.34-.79-.54-1.27c-.12-.29-.26-.56-.37-.85l-.53-1.19c-.12-.28-.25-.55-.37-.84l-.54-1.17c-.12-.27-.24-.54-.38-.81s-.39-.82-.57-1.24-.22-.46-.34-.69l-.86-1.7c-.06-.14-.12-.27-.19-.4l-.8-1.58-.35-.67-.59-1.14-.41-.76-.58-1-.4-.75c-.19-.33-.37-.67-.58-1l-.4-.75c-.21-.34-.41-.67-.6-1l-.4-.7-.7-1.27c0-.17-.18-.32-.27-.47-.34-.54-.66-1.08-1-1.69l-.35-.56-.66-1-.43-.65-.61-.93-.44-.66-.59-.88-.46-.66-.61-.86-.44-.63c-.22-.32-.45-.62-.67-.93s-.26-.35-.39-.54l-1-1.39-.3-.41-.76-1-.46-.57-.63-.8-.49-.59-.61-.75-.49-.59-.61-.73-.49-.56-.74-.74-.44-.51-.83-.91-.36-.39-1-1.1-.46-.46-.68-.71-.49-.49-.64-.66-.51-.51-.64-.61-.51-.49-.65-.63-.49-.46-.74-.67-.41-.37-1.13-1-.41-.34-1.23-1.07-.68-.56-.53-.42-.64-.53-.52-.4-.67-.51-.52-.41-.71-.52-.48-.36-1-.73-.42-.32-.88-.61-.5-.33-.69-.46-.52-.36-.68-.44-.53-.34-.67-.42-.53-.32-.69-.42-.51-.31-.81-.49-.38-.22-1.16-.66-.46-.24-.75-.4-.5-.28-.7-.37-.54-.27-.66-.34-.51-.29-.69-.33L242.8,60l-.44-.2-1.17-.52-.37-.17-.83-.36-.49-.2-.72-.31-.52-.2-.68-.27-.52-.2-.7-.28-.5-.18-.73-.27-.48-.17-1.27-.43-1.1-.37-.29-.08a49.56,49.56,0,0,0-9.39-39.15C214.94,6.52,204.11,0,195,0a15.5,15.5,0,0,0-11.85,5.08,17,17,0,0,0-4.44,10.81A15.23,15.23,0,0,0,166,27.08a15.87,15.87,0,0,0,2.25,13.22c-3.66,3.39-6.94,8.65-7.3,17.2a109.54,109.54,0,0,0-15.51,6.78c-1.15.61-2.28,1.25-3.38,1.91l-2.87,1.69c-.69.43-1.38.88-2.08,1.34-2.08,1.36-4.14,2.82-6.2,4.4a25.5,25.5,0,0,0-2,1.7q-1.91,1.52-3.78,3.2c-1.25,1.11-2.84,2.57-4.25,3.94-2,2-3.91,4-5.81,6.18-.91,1-1.81,2.13-2.71,3.23s-1.39,1.7-2.06,2.63L109.14,96q-1.65,2.23-3.25,4.59c-1.07,1.58-2.3,3.54-3.39,5.38-.81,1.36-1.59,2.73-2.38,4.14-.58,1-1.16,2.11-1.7,3.2-1,2-2.08,4.11-3.08,6.28q-2.85,6.12-5.32,13c-1,2.79-2,5.68-2.87,8.69-.61,2-1.21,4.06-1.78,6.16s-1.05,4.05-1.54,6.13c-.15.64-.31,1.29-.44,2-.51,2.21-1,4.5-1.44,6.77q-.58,3-1.1,6.09-1,6.19-1.83,12.84-.88,7.63-1.42,15.86c-.21,3.08-.38,6.1-.53,9s-.29,5.86-.4,8.71-.21,5.63-.29,8.36V225c-2.64,0-10.67,0-32.17,35.15C31.8,280.49,21.4,302.25,17.12,316.94c-1.7,5.57-3.25,12.72-1.58,17.92h-.17l-.84.17-.38.08-.77.17-.36.1-.83.22-.27.09c-.36.1-.71.22-1.05.35H10.7l-.85.34-.32.14-.67.3-.33.17-.66.36-.28.15-.85.54c-.29.2-.58.41-.85.63l-.23.18-.56.49-.27.26-.77.76c-.17.2-.35.41-.52.63l-.15.2c-.22.29-.44.58-.65.88l-.13.22c-.15.24-.31.49-.44.75a3.05,3.05,0,0,1-.19.33,5.62,5.62,0,0,0-.34.72,2.54,2.54,0,0,1-.18.37l-.51,1-.14.36c-.13.39-.27.79-.39,1.22a12.62,12.62,0,0,0-.3,1.49A12.8,12.8,0,0,0,0,350.18a35.47,35.47,0,0,0,3.86,14.9,73.34,73.34,0,0,0,5.08,9.24c.85,1.29,1.69,2.6,2.69,3.92a121.49,121.49,0,0,0,21.49,22.38q3.71,3.06,7.85,6a162.35,162.35,0,0,0,15.14,9.6c18.2,10.16,41.21,18.8,69.42,23.39q6.78,1.11,14.09,1.89a303.23,303.23,0,0,0,32.45,1.7,227.06,227.06,0,0,0,37.91-3c4.46-.76,8.74-1.69,12.87-2.68,26.77-6.62,46.75-18.76,61.55-34.54.64-.67,1.27-1.37,1.88-2.06q1.5-1.68,2.93-3.39l1.49-1.84c1.47-1.88,2.87-3.78,4.23-5.74.74-1.07,1.47-2.15,2.17-3.25a128.82,128.82,0,0,0,8.12-14.57c.61-1.27,1.21-2.54,1.7-3.84.37-.83.72-1.69,1.08-2.49.74-1.79,1.47-3.59,2.15-5.42.49-1.29,1-2.61,1.42-4,.43-1.2.83-2.4,1.22-3.62l1.07-3.39a10.67,10.67,0,0,0,1.69.12,12,12,0,0,0,4-.68,53.85,53.85,0,0,0,18.83-10.8,45.44,45.44,0,0,0,13.07-20.4A63.3,63.3,0,0,0,353.73,292.31ZM189,43.59a.31.31,0,0,0,.21-.07.28.28,0,0,0,.12-.2.29.29,0,0,0,0-.22.26.26,0,0,0-.17-.14c-7.64-3.56-15.43-7-13.73-13.22.81-3,3.38-4.2,6.65-4.2A35.14,35.14,0,0,1,196.4,29.8a.22.22,0,0,0,.16,0,.29.29,0,0,0,.18-.05.44.44,0,0,0,.12-.15.31.31,0,0,0,0-.19.26.26,0,0,0-.09-.16c-5.54-5.68-11.53-11.67-6.32-17.63A5.75,5.75,0,0,1,195,9.93c10.59,0,31.45,17.69,27.42,43.41l-.49-.1-.67-.14-.49-.1-.7-.14-1.23-.22h-.39l-1.12-.18h-.22l-.93-.14h-.41l-.73-.1h-1.59l-.69-.08h-1.56l-.9-.09H195.58l-2.17.1h-.15l-2,.14h-.22l-1.86.15h-.3l-1.81.19h-.21l-1.81.22h-.13l-1.85.23-2.54.38-2.59.45-.69.14c-1.7.3-3.24.64-4.91,1l-.83.21-.36.08C173.11,44.91,181.64,44,189,43.59ZM31.32,306.19A318.19,318.19,0,0,1,56.08,259.6c11.12-17.29,17.61-23.18,19.84-24.4a1.35,1.35,0,0,1,.42-.2c2.73.13,6.27,3.23,9.35,8.16.1.18.22.35.32.52,9.11,15.14,12.6,42,2.66,60.73a52,52,0,0,1-6.77,9.93,57.38,57.38,0,0,1-23.71,15.88c-2.06.76-4,1.34-5.63,1.78-13.18,3.47-24,2-27.81-.12C24.43,331,23.31,325.41,31.32,306.19Zm280.81-1.25a219.9,219.9,0,0,1-6.91,38.94c-1,3.47-2,6.85-3.15,10.16a120.38,120.38,0,0,1-23,40.3A106.36,106.36,0,0,1,238,422.51c-18.36,7.2-40.48,10.85-65.8,10.85a286.06,286.06,0,0,1-36.3-2.2c-4.77-.61-9.48-1.33-14.09-2.18a204.18,204.18,0,0,1-49.33-15.46c-21.42-10-39.66-23.92-51.37-39.28C10.31,360.09,9.6,351.11,10,349.64c.9-3.18,2.78-5.64,17.71-5.64h8.06c11.09,0,19.52-1.51,26.41-4.74a64.73,64.73,0,0,0,35.29-30.21c12-22.67,7.46-53.21-2.91-70.46A34.62,34.62,0,0,0,86,228.68c.24-9.6.63-19.91,1.34-30.92,3-47.23,16-83,38.59-106.43a97.8,97.8,0,0,1,38.81-24.62A106,106,0,0,1,184.47,62a115.13,115.13,0,0,1,15.74-1.11,93.79,93.79,0,0,1,28.53,4.23A84.89,84.89,0,0,1,261.69,84.8c24.38,23.14,40.06,62.64,46.63,117.42,1.07,8.94,2.15,18.71,3,29C313.35,254.42,314.38,280.25,312.13,304.94Zm32.09-3.27a41.75,41.75,0,0,1-.44,5.45,48.41,48.41,0,0,1-1,5.08,37.36,37.36,0,0,1-4.76,11.18,35.57,35.57,0,0,1-2.84,3.84,18.5,18.5,0,0,1-1.61,1.69c-.56.51-1.15,1.14-1.69,1.7s-1.15,1-1.7,1.49a42.44,42.44,0,0,1-5.63,3.76c-1.27.71-2.58,1.35-3.88,1.93s-2.64,1.1-4,1.55c.39-1.59.74-3.2,1.1-4.8q1.29-6.06,2.25-12.26c.14-.93.29-1.86.41-2.8.35-2.37.66-4.77.95-7.18.18-1.69.35-3.38.52-5.07s.32-3.39.44-5.08c.2-2.54.37-5.08.53-7.62.08-1.7.17-3.39.23-5.08s.12-3.39.16-5.08v-17.8c0-1.69,0-3.38-.14-5.08s-.12-3.38-.19-5.08-.13-3.38-.22-5.08c-.23-4.6-.54-9.17-.88-13.69H322a2.11,2.11,0,0,1,.38.35q1.89,2.22,3.7,4.78c.91,1.28,1.79,2.62,2.67,4l.86,1.42a96.36,96.36,0,0,1,5.22,10.16c.78,1.69,1.52,3.55,2.22,5.38q1.57,4.13,2.84,8.47c.83,2.84,1.58,5.74,2.19,8.65a112.72,112.72,0,0,1,1.86,11.85c.12,1,.2,2,.25,3C344.23,297.85,344.27,299.79,344.22,301.67Z" />
    <path class="cls-2"
        d="M159.63,475.8a10.85,10.85,0,0,1-10-7.1l-10-27.09q-7.26-.8-14.09-1.89c4.63,12.86,10.33,28.68,11.94,32.91.54,1.41,0,3.17-2.61,3.17H119.47s-4.66,10.27,8,9.9c35-1.05,31.19,27,42.21,21.67,10.6-5.08-9.58-21.7-9.27-21.67,40.29,5.08,27.42-9.94,27.42-9.94S167.32,475.8,159.63,475.8Z" />
    <path class="cls-2"
        d="M235.23,462a4.78,4.78,0,0,1-2.77-.84,4.89,4.89,0,0,1-1.82-2.25c-1.85-4.64-5.33-14.51-7.79-21.32-4.13,1-8.46,1.91-12.87,2.67,2.66,7.35,6.35,17.53,6.66,18.51.73,2.25.2,3.1-3.78,3.1h-15s-4.32,9.65,12.23,9.65c33.76,0,26.73,28.38,39.72,21.11,8.29-4.64-7.11-17.72-8.35-19.28-.71-.88-.14-2.12,1.69-1.85,34.49,5.27,26-9.63,26-9.63S245.35,462,235.23,462Z" />
    <path class="cls-2" d="M182.7,173a7.55,7.55,0,1,0-9.08-5.61A7.54,7.54,0,0,0,182.7,173Z" />
    <path class="cls-2" d="M264.68,172a7.55,7.55,0,1,0-10.4-2.45A7.55,7.55,0,0,0,264.68,172Z" />
    <path class="cls-2"
        d="M242.92,192l-19.12-7.92a5.81,5.81,0,0,0-2-.36,5.91,5.91,0,0,0-2,.36L200.64,192a3.29,3.29,0,0,0-1.55,1,3.2,3.2,0,0,0-.73,1.71,3.25,3.25,0,0,0,.32,1.84,3.33,3.33,0,0,0,1.28,1.35l19.4,12.58a3.84,3.84,0,0,0,2.41.71,3.8,3.8,0,0,0,2.39-.71l19.43-12.58a3.25,3.25,0,0,0,.88-4.9A3.39,3.39,0,0,0,242.92,192Z" />
</svg>