<svg id="Layer_1" data-name="Layer 1" xmlns="http://www.w3.org/2000/svg" xmlns:xlink="http://www.w3.org/1999/xlink" viewBox="0 0 377 377"><defs><style>.cls-1{fill:none;}.cls-2{clip-path:url(#clip-path);}.cls-3{clip-path:url(#clip-path-2);}.cls-4{clip-path:url(#clip-path-3);}.cls-5{clip-path:url(#clip-path-4);}.cls-6{fill:#fff;}</style><clipPath id="clip-path"><rect class="cls-1" x="149.53" y="178.06" width="95.79" height="102.95"/></clipPath><clipPath id="clip-path-2"><rect class="cls-1" x="140.02" y="95.56" width="101.05" height="150.26"/></clipPath><clipPath id="clip-path-3"><rect class="cls-1" x="19.96" y="19.96" width="336.42" height="336.42"/></clipPath><clipPath id="clip-path-4"><path class="cls-1" d="M356.93,188.45A168.49,168.49,0,1,1,188.44,20,168.48,168.48,0,0,1,356.93,188.45Z"/></clipPath></defs><g class="cls-2"><path d="M233.6,179c-102.4,36.34-81.3,101.4-81,101.93h0s.77-39.92,48.54-59.73A107.08,107.08,0,0,0,175,247h1.44c27.55,0,44.41-4.54,54.49-12.56,8.64-7,14.4-16.89,14.4-29.45,0-11.12-4.51-19.94-11.72-26.06"/></g><g class="cls-3"><path d="M223.93,113.57c-8.26-4.9-17.67-5.37-31.26-7.63A92,92,0,0,1,163,95.68c-1.79,18.88,20.16,26.15,20.16,26.15s-7.63,6.33-9.9,8.72C131.36,174.59,142.49,245,142.49,245h0c3.59-40.53,41-82.29,65.59-88.11a39.16,39.16,0,0,0-29.94,2.92c13-10.55,28.61-7.14,35.86-4.65a9.05,9.05,0,0,1,5.44,11.93,20.63,20.63,0,0,1-1.71,3.36c15.63-5.77,22.83-17.3,22.83-29.66,0-12.56-7-22-16.66-27.18"/></g><g class="cls-4"><g class="cls-5"><path d="M20,20h337v337H20Z"/></g></g><g class="cls-2"><path class="cls-6" d="M233.6,179c-102.4,36.34-81.3,101.4-81,101.93h0s.77-39.92,48.54-59.73A107.08,107.08,0,0,0,175,247h1.44c27.55,0,44.41-4.54,54.49-12.56,8.64-7,14.4-16.89,14.4-29.45,0-11.12-4.52-19.94-11.72-26.06"/></g><g class="cls-3"><path class="cls-6" d="M223.93,113.57c-8.26-4.9-17.68-5.37-31.26-7.63A92,92,0,0,1,163,95.68c-1.79,18.88,20.16,26.15,20.16,26.15s-7.63,6.33-9.9,8.72C131.36,174.59,142.49,245,142.49,245h0c3.59-40.53,41-82.29,65.58-88.11a39.13,39.13,0,0,0-29.93,2.92c13-10.55,28.61-7.14,35.86-4.65a9,9,0,0,1,5.43,11.93,20.37,20.37,0,0,1-1.7,3.36c15.63-5.77,22.83-17.3,22.83-29.66,0-12.56-7-22-16.66-27.18"/></g></svg>