<svg xmlns="http://www.w3.org/2000/svg" xmlns:xlink="http://www.w3.org/1999/xlink" width="377" zoomAndPan="magnify" viewBox="0 0 283.5 283.500005" height="377" preserveAspectRatio="xMidYMid meet" version="1.0"><defs><clipPath id="933c9c0d9a"><path d="M 0 0 L 283 0 L 283 283 L 0 283 Z M 0 0 " clip-rule="nonzero"/></clipPath><clipPath id="b1bacf4b95"><path d="M 109 133 L 189.582031 133 L 189.582031 219.597656 L 109 219.597656 Z M 109 133 " clip-rule="nonzero"/></clipPath><clipPath id="eba952609e"><path d="M 101 63.597656 L 186 63.597656 L 186 190 L 101 190 Z M 101 63.597656 " clip-rule="nonzero"/></clipPath><clipPath id="0453f69b3d"><path d="M 0 0 L 283 0 L 283 283 L 0 283 Z M 0 0 " clip-rule="nonzero"/></clipPath><clipPath id="e3563dcca1"><path d="M 283.464844 141.734375 C 283.464844 220.007812 220.007812 283.464844 141.730469 283.464844 C 63.453125 283.464844 0 220.007812 0 141.734375 C 0 63.457031 63.453125 0 141.730469 0 C 220.007812 0 283.464844 63.457031 283.464844 141.734375 Z M 283.464844 141.734375 " clip-rule="nonzero"/></clipPath><clipPath id="1b5e36b787"><path d="M 109 133 L 189.582031 133 L 189.582031 219.597656 L 109 219.597656 Z M 109 133 " clip-rule="nonzero"/></clipPath><clipPath id="2d58320e7d"><path d="M 101 63.597656 L 186 63.597656 L 186 190 L 101 190 Z M 101 63.597656 " clip-rule="nonzero"/></clipPath></defs><g clip-path="url(#933c9c0d9a)"><path fill="#ffffff" d="M 0 0 L 283.5 0 L 283.5 291 L 0 291 Z M 0 0 " fill-opacity="1" fill-rule="nonzero"/><path fill="#ffffff" d="M 0 0 L 283.5 0 L 283.5 283.5 L 0 283.5 Z M 0 0 " fill-opacity="1" fill-rule="nonzero"/><path fill="#ffffff" d="M 0 0 L 283.5 0 L 283.5 283.5 L 0 283.5 Z M 0 0 " fill-opacity="1" fill-rule="nonzero"/></g><g clip-path="url(#b1bacf4b95)"><path fill="#ffffff" d="M 179.714844 133.742188 C 93.574219 164.316406 111.324219 219.046875 111.550781 219.488281 C 111.554688 219.492188 111.554688 219.492188 111.554688 219.496094 C 111.554688 219.496094 112.203125 185.917969 152.382812 169.253906 C 152.382812 169.253906 140.101562 177.203125 130.414062 191 C 130.8125 191.003906 131.214844 191.003906 131.625 191.003906 C 154.804688 191.003906 168.988281 187.191406 177.464844 180.4375 C 184.734375 174.546875 189.578125 166.230469 189.578125 155.664062 C 189.578125 146.3125 185.78125 138.894531 179.714844 133.742188 " fill-opacity="1" fill-rule="nonzero"/></g><g clip-path="url(#eba952609e)"><path fill="#ffffff" d="M 171.585938 78.746094 C 164.636719 74.628906 156.71875 74.230469 145.289062 72.328125 C 130.503906 69.867188 120.324219 63.703125 120.324219 63.703125 C 118.8125 79.582031 137.28125 85.695312 137.28125 85.695312 C 137.28125 85.695312 130.863281 91.019531 128.949219 93.03125 C 93.710938 130.082031 103.078125 189.273438 103.078125 189.273438 C 103.082031 189.273438 103.089844 189.273438 103.097656 189.277344 C 106.125 155.179688 137.578125 120.054688 158.273438 115.15625 C 144.25 110.804688 133.089844 117.609375 133.089844 117.609375 C 144.03125 108.738281 157.160156 111.609375 163.253906 113.703125 C 167.367188 115.113281 169.445312 119.699219 167.828125 123.738281 C 167.167969 125.390625 166.394531 126.5625 166.394531 126.5625 C 179.542969 121.710938 185.597656 112.007812 185.597656 101.613281 C 185.597656 91.046875 179.714844 83.078125 171.585938 78.746094 " fill-opacity="1" fill-rule="nonzero"/></g><g clip-path="url(#0453f69b3d)"><g clip-path="url(#e3563dcca1)"><path fill="#000000" d="M 0 0 L 283.464844 0 L 283.464844 283.464844 L 0 283.464844 Z M 0 0 " fill-opacity="1" fill-rule="nonzero"/></g></g><g clip-path="url(#1b5e36b787)"><path fill="#ffffff" d="M 179.714844 133.742188 C 93.574219 164.316406 111.324219 219.046875 111.550781 219.488281 C 111.550781 219.492188 111.554688 219.492188 111.554688 219.496094 C 111.554688 219.496094 112.203125 185.917969 152.382812 169.253906 C 152.382812 169.253906 140.101562 177.203125 130.414062 191 C 130.8125 191.003906 131.214844 191.003906 131.625 191.003906 C 154.804688 191.003906 168.988281 187.191406 177.464844 180.4375 C 184.734375 174.546875 189.578125 166.230469 189.578125 155.664062 C 189.578125 146.3125 185.777344 138.894531 179.714844 133.742188 " fill-opacity="1" fill-rule="nonzero"/></g><g clip-path="url(#2d58320e7d)"><path fill="#ffffff" d="M 171.582031 78.746094 C 164.636719 74.628906 156.714844 74.230469 145.289062 72.328125 C 130.503906 69.867188 120.324219 63.703125 120.324219 63.703125 C 118.8125 79.582031 137.28125 85.695312 137.28125 85.695312 C 137.28125 85.695312 130.859375 91.019531 128.949219 93.03125 C 93.710938 130.082031 103.078125 189.273438 103.078125 189.273438 C 103.082031 189.273438 103.089844 189.273438 103.097656 189.277344 C 106.125 155.179688 137.578125 120.054688 158.269531 115.15625 C 144.246094 110.804688 133.089844 117.609375 133.089844 117.609375 C 144.027344 108.738281 157.160156 111.609375 163.253906 113.703125 C 167.363281 115.113281 169.445312 119.699219 167.824219 123.738281 C 167.164062 125.390625 166.394531 126.5625 166.394531 126.5625 C 179.542969 121.710938 185.597656 112.007812 185.597656 101.613281 C 185.597656 91.046875 179.714844 83.078125 171.582031 78.746094 " fill-opacity="1" fill-rule="nonzero"/></g></svg>